<svg width="100" height="100" viewBox="0 0 100 100" fill="none" xmlns="http://www.w3.org/2000/svg">
<path d="M79.0691 7.39634C80.4634 8.03371 80.9325 9.78303 80.0443 11.0325L56.0888 44.7327L93.7414 39.0646C95.2184 38.8422 96.5473 39.986 96.5473 41.4797V55.4999C96.5473 56.9521 95.2877 58.0835 93.8439 57.9282L56.0888 53.8685L80.1757 86.1205C81.0278 87.2614 80.727 88.8864 79.523 89.6468L67.6876 97.1218C66.4031 97.9331 64.6973 97.3871 64.1227 95.9807L48.6931 58.2189L33.3068 95.8749C32.7179 97.3161 30.9489 97.8458 29.6648 96.9653L19.0327 89.6746C17.8883 88.89 17.6268 87.3107 18.457 86.199L42.6026 53.8685L6.26688 59.5208C4.78621 59.7511 3.44922 58.606 3.44922 57.1075V43.2339C3.44922 41.7354 4.78621 40.5903 6.26688 40.8207L42.6026 46.4729L18.5157 14.221C17.6636 13.08 17.9644 11.455 19.1683 10.6946L31.0037 3.21965C32.2883 2.40833 33.994 2.95432 34.5687 4.36079L49.9982 42.1225L65.5673 4.01921C66.0923 2.73434 67.5812 2.14473 68.8436 2.7218L79.0691 7.39634Z" fill="white"/>
</svg>
